<svg xmlns="http://www.w3.org/2000/svg" viewBox="0 0 512 512" width="512" height="512" role="img" aria-label="Anti mosquito logo">
  <defs>
    <linearGradient id="redRing" x1="96" y1="64" x2="414" y2="440" gradientUnits="userSpaceOnUse">
      <stop offset="0" stop-color="#e7332d"/>
      <stop offset=".55" stop-color="#c7161e"/>
      <stop offset="1" stop-color="#971116"/>
    </linearGradient>
    <radialGradient id="bodyShine" cx="36%" cy="25%" r="78%">
      <stop offset="0" stop-color="#f0f0ed"/>
      <stop offset=".18" stop-color="#77736c"/>
      <stop offset=".48" stop-color="#242421"/>
      <stop offset="1" stop-color="#070707"/>
    </radialGradient>
    <linearGradient id="belly" x1="212" y1="262" x2="269" y2="433" gradientUnits="userSpaceOnUse">
      <stop offset="0" stop-color="#786f63"/>
      <stop offset=".48" stop-color="#4a423b"/>
      <stop offset="1" stop-color="#b6aa98"/>
    </linearGradient>
    <linearGradient id="wing" x1="125" y1="210" x2="360" y2="390" gradientUnits="userSpaceOnUse">
      <stop offset="0" stop-color="#eefbff" stop-opacity=".92"/>
      <stop offset=".55" stop-color="#bce4f5" stop-opacity=".82"/>
      <stop offset="1" stop-color="#84bcd5" stop-opacity=".72"/>
    </linearGradient>
  </defs>

  <rect width="512" height="512" fill="none"/>

  <g stroke-linecap="round" stroke-linejoin="round">
    <circle cx="256" cy="256" r="224" fill="none" stroke="#34302e" stroke-width="16"/>
    <circle cx="256" cy="256" r="208" fill="none" stroke="url(#redRing)" stroke-width="70"/>
    <circle cx="256" cy="256" r="172" fill="none" stroke="#7d1114" stroke-width="6" opacity=".45"/>

    <g id="mosquito">
      <g fill="url(#wing)" stroke="#242424" stroke-width="5" opacity=".9">
        <path d="M222 230c-54 9-105 56-129 131 57-6 106-45 151-117Z"/>
        <path d="M292 230c54 9 105 56 129 131-57-6-106-45-151-117Z"/>
        <path d="M207 244c-24 28-44 63-61 105M226 252c-9 31-19 65-33 99M296 252c9 31 19 65 33 99M315 244c24 28 44 63 61 105" fill="none" stroke="#26333a" stroke-width="3" opacity=".72"/>
      </g>

      <path d="M189 183c-31 8-58 2-88-24" fill="none" stroke="#101010" stroke-width="10"/>
      <path d="M323 183c31 8 58 2 88-24" fill="none" stroke="#101010" stroke-width="10"/>
      <path d="M194 198c-29 18-56 41-89 47" fill="none" stroke="#101010" stroke-width="8"/>
      <path d="M318 198c29 18 56 41 89 47" fill="none" stroke="#101010" stroke-width="8"/>
      <path d="M209 242c-39 26-55 70-75 115" fill="none" stroke="#101010" stroke-width="7"/>
      <path d="M303 242c39 26 55 70 75 115" fill="none" stroke="#101010" stroke-width="7"/>

      <path d="M234 218c-25 23-39 82-34 136 3 40 13 69 31 80 18-11 31-41 36-79 7-55-4-115-33-137Z" fill="url(#belly)" stroke="#101010" stroke-width="6"/>
      <path d="M207 293h53M203 322h59M205 352h55M213 382h38" fill="none" stroke="#171717" stroke-width="4" opacity=".72"/>

      <ellipse cx="256" cy="205" rx="50" ry="55" fill="url(#bodyShine)" stroke="#101010" stroke-width="7"/>
      <ellipse cx="230" cy="161" rx="28" ry="31" fill="#d7d7d2" stroke="#101010" stroke-width="6" transform="rotate(-10 230 161)"/>
      <ellipse cx="281" cy="161" rx="28" ry="31" fill="#d7d7d2" stroke="#101010" stroke-width="6" transform="rotate(10 281 161)"/>
      <circle cx="236" cy="156" r="9" fill="#101010"/>
      <circle cx="275" cy="156" r="9" fill="#101010"/>
      <circle cx="240" cy="151" r="3" fill="#fff"/>
      <circle cx="279" cy="151" r="3" fill="#fff"/>

      <path d="M232 193c13 18 34 18 47 0" fill="#f7f4ef" stroke="#101010" stroke-width="5"/>
      <path d="M239 192l7 12 7-13 7 13 7-12" fill="none" stroke="#101010" stroke-width="3"/>

      <path d="M239 132c-10-48-3-83 16-101" fill="none" stroke="#202020" stroke-width="11"/>
      <path d="M273 132c10-48 26-77 47-101" fill="none" stroke="#202020" stroke-width="11"/>
    </g>

    <path d="M102 108 404 410" stroke="url(#redRing)" stroke-width="70"/>
  </g>
</svg>
