<svg xmlns="http://www.w3.org/2000/svg" viewBox="0 0 96 96" width="96" height="96" role="img" aria-label="Flying mosquito">
  <rect width="96" height="96" fill="none"/>
  <g stroke-linecap="round" stroke-linejoin="round">
    <g fill="#dff7ff" stroke="#70c7e8" stroke-width="3" opacity=".88">
      <ellipse cx="28" cy="39" rx="24" ry="11" transform="rotate(-30 28 39)"/>
      <ellipse cx="68" cy="39" rx="24" ry="11" transform="rotate(30 68 39)"/>
    </g>
    <g fill="#2c2d31" stroke="#111216" stroke-width="4">
      <ellipse cx="48" cy="53" rx="12" ry="22"/>
      <circle cx="48" cy="27" r="10"/>
      <path d="M39 41 20 24M57 41l19-17M39 55 16 58M57 55l23 3M41 69 22 82M55 69l19 13"/>
      <path d="M43 18 37 8M53 18l6-10"/>
    </g>
    <path d="M46 34h4M42 50h12M43 60h10" stroke="#5f6066" stroke-width="3"/>
  </g>
</svg>
