<svg xmlns="http://www.w3.org/2000/svg" viewBox="0 0 128 128" width="128" height="128" role="img" aria-label="Slipper hit item">
  <rect width="128" height="128" fill="none"/>
  <g transform="rotate(-24 64 64)">
    <path d="M47 13c19-8 46 0 53 24 7 25-5 58-25 75-8 7-23 6-30-1-17-17-24-75 2-98Z" fill="#ffca50" stroke="#b96d20" stroke-width="7" stroke-linejoin="round"/>
    <path d="M58 34c8 11 15 24 18 38" fill="none" stroke="#8c4e1b" stroke-width="8" stroke-linecap="round"/>
    <path d="M80 34c-9 10-16 23-21 39" fill="none" stroke="#8c4e1b" stroke-width="8" stroke-linecap="round"/>
    <path d="M46 85c11 9 31 8 43-3" fill="none" stroke="#ffe08a" stroke-width="6" stroke-linecap="round"/>
  </g>
  <path d="M16 22 31 8M19 44H4M36 19l-4-17" stroke="#ffef9e" stroke-width="6" stroke-linecap="round"/>
</svg>
